<?xml version="1.0" encoding="UTF-8" standalone="no"?><svg xmlns="http://www.w3.org/2000/svg" xmlns:xlink="http://www.w3.org/1999/xlink" contentScriptType="application/ecmascript" contentStyleType="text/css" height="332px" preserveAspectRatio="none" style="width:239px;height:332px;background:#00000000;" version="1.1" viewBox="0 0 239 332" width="239px" zoomAndPan="magnify"><defs><filter height="300%" id="f1frs3a40h9a3w" width="300%" x="-1" y="-1"><feGaussianBlur result="blurOut" stdDeviation="2.0"/><feColorMatrix in="blurOut" result="blurOut2" type="matrix" values="0 0 0 0 0 0 0 0 0 0 0 0 0 0 0 0 0 0 .4 0"/><feOffset dx="4.0" dy="4.0" in="blurOut2" result="blurOut3"/><feBlend in="SourceGraphic" in2="blurOut3" mode="normal"/></filter></defs><g><!--MD5=[3fd616f346a44cd59a91eb10b19e157c]
class User--><rect codeLine="4" fill="#FEFECE" filter="url(#f1frs3a40h9a3w)" height="112.7754" id="User" style="stroke:#A80036;stroke-width:1.5;" width="138" x="48" y="7"/><ellipse cx="99.75" cy="23" fill="#ADD1B2" rx="11" ry="11" style="stroke:#A80036;stroke-width:1.0;"/><path d="M103.3643,29.5 L95.6445,29.5 L95.6445,17.1069 L103.3643,17.1069 L103.3643,19.2651 L98.0933,19.2651 L98.0933,21.938 L102.8662,21.938 L102.8662,24.0962 L98.0933,24.0962 L98.0933,27.3418 L103.3643,27.3418 Z " fill="#000000"/><text fill="#000000" font-family="sans-serif" font-size="12" lengthAdjust="spacing" textLength="26" x="120.25" y="27.5352">User</text><line style="stroke:#A80036;stroke-width:1.5;" x1="49" x2="185" y1="39" y2="39"/><ellipse cx="59" cy="50" fill="#000000" rx="3" ry="3" style="stroke:#000000;stroke-width:1.0;"/><text fill="#000000" font-family="sans-serif" font-size="11" lengthAdjust="spacing" textLength="10" x="68" y="53.6348">id</text><line style="stroke:#A80036;stroke-width:1.0;" x1="49" x2="185" y1="59.9551" y2="59.9551"/><ellipse cx="59" cy="70.9551" fill="#000000" rx="3" ry="3" style="stroke:#000000;stroke-width:1.0;"/><text fill="#000000" font-family="sans-serif" font-size="11" lengthAdjust="spacing" textLength="28" x="68" y="74.5898">email</text><ellipse cx="59" cy="83.9102" fill="#000000" rx="3" ry="3" style="stroke:#000000;stroke-width:1.0;"/><text fill="#000000" font-family="sans-serif" font-size="11" lengthAdjust="spacing" textLength="112" x="68" y="87.5449">encrypted_password</text><text fill="#000000" font-family="sans-serif" font-size="11" lengthAdjust="spacing" textLength="56" x="68" y="100.5">created_at</text><text fill="#000000" font-family="sans-serif" font-size="11" lengthAdjust="spacing" textLength="52" x="68" y="113.4551">last_login</text><!--MD5=[88f66da615ead437be96f70edff3214c]
class UserToken--><rect codeLine="13" fill="#FEFECE" filter="url(#f1frs3a40h9a3w)" height="86.8652" id="UserToken" style="stroke:#A80036;stroke-width:1.5;" width="94" x="7" y="206"/><ellipse cx="22" cy="222" fill="#ADD1B2" rx="11" ry="11" style="stroke:#A80036;stroke-width:1.0;"/><path d="M25.6143,228.5 L17.8945,228.5 L17.8945,216.1069 L25.6143,216.1069 L25.6143,218.2651 L20.3433,218.2651 L20.3433,220.938 L25.1162,220.938 L25.1162,223.0962 L20.3433,223.0962 L20.3433,226.3418 L25.6143,226.3418 Z " fill="#000000"/><text fill="#000000" font-family="sans-serif" font-size="12" lengthAdjust="spacing" textLength="62" x="36" y="226.5352">UserToken</text><line style="stroke:#A80036;stroke-width:1.5;" x1="8" x2="100" y1="238" y2="238"/><ellipse cx="18" cy="249" fill="#000000" rx="3" ry="3" style="stroke:#000000;stroke-width:1.0;"/><text fill="#000000" font-family="sans-serif" font-size="11" lengthAdjust="spacing" textLength="30" x="27" y="252.6348">token</text><line style="stroke:#A80036;stroke-width:1.0;" x1="8" x2="100" y1="258.9551" y2="258.9551"/><ellipse cx="18" cy="269.9551" fill="#000000" rx="3" ry="3" style="stroke:#000000;stroke-width:1.0;"/><text fill="#000000" font-family="sans-serif" font-size="11" lengthAdjust="spacing" textLength="60" x="27" y="273.5898">user_agent</text><ellipse cx="18" cy="282.9102" fill="#000000" rx="3" ry="3" style="stroke:#000000;stroke-width:1.0;"/><text fill="#000000" font-family="sans-serif" font-size="11" lengthAdjust="spacing" textLength="56" x="27" y="286.5449">created_at</text><!--MD5=[5d3c9bb25b1b07c105e03cfa5bc0b7ee]
class Note--><rect codeLine="20" fill="#FEFECE" filter="url(#f1frs3a40h9a3w)" height="138.6855" id="Note" style="stroke:#A80036;stroke-width:1.5;" width="89" x="136.5" y="180"/><ellipse cx="165" cy="196" fill="#ADD1B2" rx="11" ry="11" style="stroke:#A80036;stroke-width:1.0;"/><path d="M168.6143,202.5 L160.8945,202.5 L160.8945,190.1069 L168.6143,190.1069 L168.6143,192.2651 L163.3433,192.2651 L163.3433,194.938 L168.1162,194.938 L168.1162,197.0962 L163.3433,197.0962 L163.3433,200.3418 L168.6143,200.3418 Z " fill="#000000"/><text fill="#000000" font-family="sans-serif" font-size="12" lengthAdjust="spacing" textLength="27" x="182" y="200.5352">Note</text><line style="stroke:#A80036;stroke-width:1.5;" x1="137.5" x2="224.5" y1="212" y2="212"/><ellipse cx="147.5" cy="223" fill="#000000" rx="3" ry="3" style="stroke:#000000;stroke-width:1.0;"/><text fill="#000000" font-family="sans-serif" font-size="11" lengthAdjust="spacing" textLength="10" x="156.5" y="226.6348">id</text><line style="stroke:#A80036;stroke-width:1.0;" x1="137.5" x2="224.5" y1="232.9551" y2="232.9551"/><ellipse cx="147.5" cy="243.9551" fill="#000000" rx="3" ry="3" style="stroke:#000000;stroke-width:1.0;"/><text fill="#000000" font-family="sans-serif" font-size="11" lengthAdjust="spacing" textLength="20" x="156.5" y="247.5898">title</text><ellipse cx="147.5" cy="256.9102" fill="#000000" rx="3" ry="3" style="stroke:#000000;stroke-width:1.0;"/><text fill="#000000" font-family="sans-serif" font-size="11" lengthAdjust="spacing" textLength="39" x="156.5" y="260.5449">url_key</text><text fill="#000000" font-family="sans-serif" font-size="11" lengthAdjust="spacing" textLength="27" x="156.5" y="273.5">body</text><ellipse cx="147.5" cy="282.8203" fill="#000000" rx="3" ry="3" style="stroke:#000000;stroke-width:1.0;"/><text fill="#000000" font-family="sans-serif" font-size="11" lengthAdjust="spacing" textLength="56" x="156.5" y="286.4551">created_at</text><text fill="#000000" font-family="sans-serif" font-size="11" lengthAdjust="spacing" textLength="63" x="156.5" y="299.4102">modified_at</text><text fill="#000000" font-family="sans-serif" font-size="11" lengthAdjust="spacing" textLength="55" x="156.5" y="312.3652">deleted_at</text><!--MD5=[030356e57755cad27907a94df457fa0d]
link User to Note--><path codeLine="31" d="M139.03,127.83 C144.01,142.15 149.35,157.51 154.5,172.3 " fill="none" id="User-Note" style="stroke:#A80036;stroke-width:1.0;"/><line style="stroke:#A80036;stroke-width:1.0;" x1="154.5418" x2="162.837" y1="172.424" y2="178.0089"/><line style="stroke:#A80036;stroke-width:1.0;" x1="154.5418" x2="151.503" y1="172.424" y2="181.9511"/><line style="stroke:#A80036;stroke-width:1.0;" x1="154.5418" x2="157.17" y1="172.424" y2="179.98"/><ellipse cx="152.5707" cy="166.757" rx="4" ry="4" style="stroke:#A80036;stroke-width:1.0;fill:none;"/><line style="stroke:#A80036;stroke-width:1.0;fill:none;" x1="133.9161" x2="141.4721" y1="125.3021" y2="122.6739"/><line style="stroke:#A80036;stroke-width:1.0;fill:none;" x1="134.9017" x2="142.4576" y1="128.1356" y2="125.5074"/><line style="stroke:#A80036;stroke-width:1.0;fill:none;" x1="139.0082" x2="136.38" y1="127.766" y2="120.21"/><!--MD5=[8ec6dd6ca9e3fecbcef191a372284892]
link User to UserToken--><path codeLine="32" d="M95.24,128.07 C87.4,150.96 78.67,176.45 71.27,198.07 " fill="none" id="User-UserToken" style="stroke:#A80036;stroke-width:1.0;"/><line style="stroke:#A80036;stroke-width:1.0;" x1="71.1955" x2="74.288" y1="198.2693" y2="207.7791"/><line style="stroke:#A80036;stroke-width:1.0;" x1="71.1955" x2="62.932" y1="198.2693" y2="203.9009"/><line style="stroke:#A80036;stroke-width:1.0;" x1="71.1955" x2="68.61" y1="198.2693" y2="205.84"/><ellipse cx="73.1346" cy="192.5913" rx="4" ry="4" style="stroke:#A80036;stroke-width:1.0;fill:none;"/><line style="stroke:#A80036;stroke-width:1.0;fill:none;" x1="92.8505" x2="100.4197" y1="122.6997" y2="125.2895"/><line style="stroke:#A80036;stroke-width:1.0;fill:none;" x1="91.8793" x2="99.4485" y1="125.5381" y2="128.128"/><line style="stroke:#A80036;stroke-width:1.0;fill:none;" x1="95.3402" x2="97.93" y1="127.7792" y2="120.21"/><!--MD5=[1e95a53ecdafaf8c313fa301063d57bb]
@startuml "data-model"

skinparam backgroundColor transparent

entity User {
    * id
    - - -
    * email
    * encrypted_password
    created_at
    last_login
}

entity UserToken {
    * token
    - - -
    * user_agent
    * created_at
}

entity Note {
    * id
    - - -
    * title
    * url_key
    body
    * created_at
    modified_at
    deleted_at
}

User ||- -o{ Note
User ||- -o{ UserToken

@enduml

PlantUML version 1.2021.7(Sun May 23 14:40:07 CEST 2021)
(GPL source distribution)
Java Runtime: OpenJDK Runtime Environment
JVM: OpenJDK 64-Bit Server VM
Default Encoding: UTF-8
Language: en
Country: GB
--></g></svg>